<mxfile host="app.diagrams.net" modified="2023-06-02T02:55:32.493Z" agent="Mozilla/5.0 (Windows NT 10.0; Win64; x64) AppleWebKit/537.36 (KHTML, like Gecko) Chrome/113.0.0.0 Safari/537.36" version="21.3.7" etag="r-0lEH_vdGO6LNYAfqVe" type="github">
  <diagram name="PÃ¡gina-1" id="QPeMwSHjofsYgPbhh1cE">
    <mxGraphModel>
      <root>
        <mxCell id="0" />
        <mxCell id="1" parent="0" />
      </root>
    </mxGraphModel>
  </diagram>
</mxfile>
